# xmcd CD database file
#
# Track frame offsets:
#	150
#	12012
#	34771
#	51068
#	70660
#	80563
#	93885
#	116197
#	140297
#	145657
#	158247
#	169069
#
# Disc length: 2541 seconds
#
# Revision: 0
# Processed by: cddbd v1.5.1PL2 Copyright (c) Steve Scherf et al.
# Submitted via: CDex 1.51
#
DISCID=9409eb0c
DTITLE=Jullander - Phobos in Funkytown
DYEAR=2005
DGENRE=Post Rock
TTITLE0=Der Himmel uber Oberlin
TTITLE1=Der Tragodie erster Teil
TTITLE2=Reinhard Libuda verliert die Geduld
TTITLE3=Titel Thesen Tempranillo (Der Tragodie zweiter Teil)
TTITLE4=Pulka: Firestarter
TTITLE5=Vorsicht, Farfalle!
TTITLE6=Undo Histrory (Der Tragodie dritter Teil)
TTITLE7=Amundsen: After Hours
TTITLE8=Jullander Screaming
TTITLE9=Das geloopte Land (Der Tragodie vierter und letzter Teil)
TTITLE10=1000 Meisterwerke
TTITLE11=Sheppard/Wix: Hosny-Mix
EXTD=YEAR: 2005
EXTT0=
EXTT1=
EXTT2=
EXTT3=
EXTT4=
EXTT5=
EXTT6=
EXTT7=
EXTT8=
EXTT9=
EXTT10=
EXTT11=
PLAYORDER=
